<svg id="visual" viewBox="0 0 960 540" width="960" height="540" xmlns="http://www.w3.org/2000/svg" xmlns:xlink="http://www.w3.org/1999/xlink" version="1.1"><path d="M0 454L107 421L213 446L320 406L427 348L533 460L640 341L747 397L853 452L960 378L960 541L853 541L747 541L640 541L533 541L427 541L320 541L213 541L107 541L0 541Z" fill="#ff6f61"></path><path d="M0 412L107 449L213 392L320 444L427 442L533 399L640 459L747 392L853 417L960 416L960 541L853 541L747 541L640 541L533 541L427 541L320 541L213 541L107 541L0 541Z" fill="#e14434"></path><path d="M0 466L107 481L213 460L320 457L427 471L533 519L640 471L747 447L853 448L960 484L960 541L853 541L747 541L640 541L533 541L427 541L320 541L213 541L107 541L0 541Z" fill="#c00000"></path></svg>