<?xml version="1.0" encoding="utf-8"?>
<svg width="343pt" height="340pt" id="svg2160" version="1.1" xmlns="http://www.w3.org/2000/svg" xmlns:xlink="http://www.w3.org/1999/xlink">
  <g id="layer1">
    <path style="fill:none;fill-rule:evenodd;stroke:#9d1717;stroke-width:3.995;stroke-linecap:round;stroke-linejoin:miter;stroke-miterlimit:4;stroke-dasharray:none;stroke-opacity:1" d="M 389.44712,361.52091 L 389.44712,144.39255" id="path3150"/>
    <path id="path2169" d="M 70.288462,22.011705 L 70.288462,423.42098" style="fill: none; fill-rule: evenodd; stroke-width: 2.44376; stroke-linecap: round; stroke-linejoin: miter; stroke-miterlimit: 4; stroke-dasharray: none; stroke-opacity: 1; stroke: rgb(255, 255, 255);"/>
    <path style="fill: none; fill-rule: evenodd; stroke-width: 2.47082; stroke-linecap: round; stroke-linejoin: miter; stroke-miterlimit: 4; stroke-dasharray: none; stroke-opacity: 1; stroke: rgb(255, 255, 255);" d="M 414.40401,365.33654 L 4.0575336,365.33654" id="path2171"/>
    <path id="path3144" d="M 70.288462,364.51923 L 389.85577,143.84615" style="fill:none;fill-rule:evenodd;stroke:#040594;stroke-width:4;stroke-linecap:round;stroke-linejoin:miter;stroke-opacity:1;stroke-miterlimit:4;stroke-dasharray:none"/>
    <path transform="matrix(8.3642488e-2,0,0,2.7966767e-2,374.5771,139.41224)" d="M 214.95192 213.31731 A 42.5 132.40384 0 1 1  129.95192,213.31731 A 42.5 132.40384 0 1 1  214.95192 213.31731 z" id="path3146" style="opacity:1;fill:#06060c;fill-opacity:1;stroke:none;stroke-width:2;stroke-linecap:round;stroke-miterlimit:4;stroke-dasharray:none;stroke-dashoffset:0;stroke-opacity:1"/>
    <path id="path3148" d="M 388.50307,363.70192 L 72.458472,363.70192" style="fill:none;fill-rule:evenodd;stroke:#9d1717;stroke-width:4.4325;stroke-linecap:round;stroke-linejoin:miter;stroke-miterlimit:4;stroke-dasharray:none;stroke-opacity:1"/>
    <path id="path3152" d="M 368.11058,362.76575 L 368.11058,342.57078" style="fill:none;fill-rule:evenodd;stroke:#9d1717;stroke-width:2.7125001;stroke-linecap:round;stroke-linejoin:miter;stroke-miterlimit:4;stroke-dasharray:none;stroke-opacity:1"/>
    <path style="fill:none;fill-rule:evenodd;stroke:#9d1717;stroke-width:2.7125001;stroke-linecap:round;stroke-linejoin:miter;stroke-miterlimit:4;stroke-dasharray:none;stroke-opacity:1" d="M 368.0131,340.66827 L 388.20807,340.66827" id="path3154"/>
    <path transform="matrix(1,0,0,-1,-89.365385,543.11474)" d="M 218.22116,181.44231 A 51.490383,52.307693 0 0 1 209.56343,210.47252" id="path3156" style="opacity: 1; fill: none; fill-opacity: 1; stroke-width: 2.7125; stroke-linecap: round; stroke-miterlimit: 4; stroke-dasharray: none; stroke-dashoffset: 0; stroke-opacity: 1; stroke: rgb(255, 255, 255);"/>
    <path transform="matrix(8.2123962e-2,8.6727555e-2,-2.211263e-2,0.3220969,80.963039,0.1018054)" d="M -64.567314,98.07692 L -102.00996,108.25213 L -139.4526,118.42735 L -129.54327,80.913459 L -119.63395,43.399572 L -92.100629,70.738246 L -64.567314,98.07692 z " id="path3170" style="opacity: 1; fill-opacity: 1; stroke: none; stroke-width: 2.7125; stroke-linecap: round; stroke-miterlimit: 4; stroke-dasharray: none; stroke-dashoffset: 0; stroke-opacity: 1; fill: rgb(255, 255, 255);"/>
    <text transform="scale(0.9104956,1.0983029)" id="text3172" style="fill: rgb(255, 255, 255); font-family: &quot;Times New Roman&quot;; font-size: 58.4276px; font-style: italic; line-height: 73.0345px; white-space: pre;" x="246.745" y="214.317">r</text>
    <text transform="scale(0.9753057,1.0253196)" id="text3176" style="fill: rgb(255, 255, 255); font-family: &quot;Times New Roman&quot;; font-size: 50.5398px; font-style: italic; line-height: 63.1748px; white-space: pre;" x="389.456" y="383.988">x</text>
    <text transform="scale(1.0335003,0.9675856)" id="text3180" style="fill: rgb(255, 255, 255); font-family: &quot;Times New Roman&quot;; font-size: 46.9179px; font-style: italic; line-height: 58.6474px; white-space: pre;" x="41.1283" y="46.8009">y</text>
    <path style="opacity: 1; fill-opacity: 1; stroke-width: 2.7125; stroke-linecap: round; stroke-miterlimit: 4; stroke-dasharray: none; stroke-dashoffset: 0; stroke-opacity: 1; stroke: rgb(255, 253, 253); fill: rgb(255, 255, 255);" id="path3184" d="M -64.567314,98.07692 L -102.00996,108.25213 L -139.4526,118.42735 L -129.54327,80.913459 L -119.63395,43.399572 L -92.100629,70.738246 L -64.567314,98.07692 z " transform="matrix(-8.6727555e-2,8.2123962e-2,-0.3220969,-2.211263e-2,432.37461,376.325)"/>
    <g id="g3359" transform="matrix(4.8576649,0,0,4.8576649,-942.32649,-311.22354)">
      <defs id="defs3361">
        <g id="g3363">
          <symbol id="textext-6925c2c1-0" overflow="visible" style="overflow:visible">
            <path id="path3366" d="" style="stroke:none"/>
          </symbol>
          <symbol id="textext-6925c2c1-1" overflow="visible" style="overflow:visible">
            <path id="path3369" d="M 1.6875,1.6875 C 1.65625,1.828125 1.640625,1.84375 1.640625,1.890625 c 0,0.21875 0.1875,0.28125 0.296875,0.28125 0.046875,0 0.265625,-0.03125 0.359375,-0.265625 C 2.328125,1.828125 2.375,1.5 2.65625,0.09375 c 0.078125,0 0.15625,0.015625 0.328125,0.015625 1.65625,0 3.1875,-1.5625 3.1875,-3.140625 0,-0.78125 -0.390625,-1.375 -1.140625,-1.375 -1.4375,0 -2.046875,1.9375 -2.640625,3.875 C 1.3125,-0.734375 0.75,-1.28125 0.75,-2 c 0,-0.28125 0.234375,-1.375 0.828125,-2.0625 0.09375,-0.09375 0.09375,-0.109375 0.09375,-0.140625 0,-0.03125 -0.03125,-0.09375 -0.125,-0.09375 -0.28125,0 -1.046875,1.453125 -1.046875,2.40625 0,0.9375 0.65625,1.65625 1.71875,1.90625 z m 1.390625,-2.15625 c -0.09375,0 -0.109375,0 -0.1875,-0.015625 -0.125,0 -0.125,0 -0.125,-0.03125 0,-0.015625 0.171875,-0.9375 0.1875,-1.078125 0.3125,-1.28125 1.09375,-2.234375 1.984375,-2.234375 0.6875,0 0.953125,0.53125 0.953125,1.015625 0,1.125 -1.28125,2.34375 -2.8125,2.34375 z m 0,0" style="stroke:none"/>
          </symbol>
        </g>
      </defs>
      <g id="textext-6925c2c1-2">
        <g id="g3372" style="fill:#000000;fill-opacity:1">
          <use id="use3374" width="428.75" height="425" transform="matrix(1, 0, 0, 1, 223.4320068359375, 134.76499938964844)" style="fill: rgb(255, 255, 255);" xlink:href="#textext-6925c2c1-1"/>
        </g>
      </g>
    </g>
    <g transform="matrix(3.7032852,0,0,3.7032852,-641.41959,-105.67994)" id="g3491">
      <defs id="defs3493">
        <g id="g3495">
          <symbol style="overflow:visible" overflow="visible" id="textext-6637ec56-0">
            <path style="stroke:none" d="" id="path3498"/>
          </symbol>
          <symbol style="overflow:visible" overflow="visible" id="textext-6637ec56-1">
            <path style="stroke:none" d="m 0.875,-0.59375 c -0.03125,0.15625 -0.09375,0.390625 -0.09375,0.4375 0,0.171875 0.140625,0.265625 0.296875,0.265625 0.125,0 0.296875,-0.078125 0.375,-0.28125 C 1.46875,-0.203125 1.796875,-1.5625 1.84375,-1.75 c 0.078125,-0.328125 0.265625,-1.015625 0.3125,-1.296875 0.046875,-0.125 0.328125,-0.59375 0.5625,-0.8125 0.078125,-0.0625 0.375,-0.328125 0.796875,-0.328125 0.265625,0 0.40625,0.125 0.421875,0.125 -0.296875,0.046875 -0.515625,0.28125 -0.515625,0.546875 0,0.15625 0.109375,0.34375 0.375,0.34375 0.265625,0 0.546875,-0.234375 0.546875,-0.59375 0,-0.34375 -0.3125,-0.640625 -0.828125,-0.640625 C 2.875,-4.40625 2.4375,-3.921875 2.25,-3.640625 2.15625,-4.09375 1.796875,-4.40625 1.328125,-4.40625 0.875,-4.40625 0.6875,-4.015625 0.59375,-3.84375 0.421875,-3.5 0.296875,-2.90625 0.296875,-2.875 c 0,0.109375 0.09375,0.109375 0.109375,0.109375 0.109375,0 0.109375,-0.015625 0.171875,-0.234375 0.171875,-0.703125 0.375,-1.1875 0.734375,-1.1875 0.15625,0 0.296875,0.078125 0.296875,0.453125 0,0.21875 -0.03125,0.328125 -0.15625,0.84375 z m 0,0" id="path3501"/>
          </symbol>
          <symbol style="overflow:visible" overflow="visible" id="textext-6637ec56-2">
            <path style="stroke:none" d="M 1.6875,1.6875 C 1.65625,1.828125 1.640625,1.84375 1.640625,1.890625 c 0,0.21875 0.1875,0.28125 0.296875,0.28125 0.046875,0 0.265625,-0.03125 0.359375,-0.265625 C 2.328125,1.828125 2.375,1.5 2.65625,0.09375 c 0.078125,0 0.15625,0.015625 0.328125,0.015625 1.65625,0 3.1875,-1.5625 3.1875,-3.140625 0,-0.78125 -0.390625,-1.375 -1.140625,-1.375 -1.4375,0 -2.046875,1.9375 -2.640625,3.875 C 1.3125,-0.734375 0.75,-1.28125 0.75,-2 c 0,-0.28125 0.234375,-1.375 0.828125,-2.0625 0.09375,-0.09375 0.09375,-0.109375 0.09375,-0.140625 0,-0.03125 -0.03125,-0.09375 -0.125,-0.09375 -0.28125,0 -1.046875,1.453125 -1.046875,2.40625 0,0.9375 0.65625,1.65625 1.71875,1.90625 z m 1.390625,-2.15625 c -0.09375,0 -0.109375,0 -0.1875,-0.015625 -0.125,0 -0.125,0 -0.125,-0.03125 0,-0.015625 0.171875,-0.9375 0.1875,-1.078125 0.3125,-1.28125 1.09375,-2.234375 1.984375,-2.234375 0.6875,0 0.953125,0.53125 0.953125,1.015625 0,1.125 -1.28125,2.34375 -2.8125,2.34375 z m 0,0" id="path3504"/>
          </symbol>
          <symbol style="overflow:visible" overflow="visible" id="textext-6637ec56-3">
            <path style="stroke:none" d="" id="path3507"/>
          </symbol>
          <symbol style="overflow:visible" overflow="visible" id="textext-6637ec56-4">
            <path style="stroke:none" d="m 1.171875,-2.171875 c 0,-1.625 0.8125,-2.046875 1.34375,-2.046875 0.09375,0 0.71875,0.015625 1.0625,0.375 -0.40625,0.03125 -0.46875,0.328125 -0.46875,0.453125 0,0.265625 0.1875,0.453125 0.453125,0.453125 0.265625,0 0.46875,-0.15625 0.46875,-0.46875 0,-0.671875 -0.765625,-1.0625 -1.53125,-1.0625 -1.25,0 -2.15625,1.078125 -2.15625,2.3125 0,1.28125 0.984375,2.265625 2.140625,2.265625 1.328125,0 1.65625,-1.203125 1.65625,-1.296875 0,-0.09375 -0.109375,-0.09375 -0.140625,-0.09375 -0.078125,0 -0.109375,0.03125 -0.125,0.09375 -0.28125,0.921875 -0.9375,1.046875 -1.296875,1.046875 -0.53125,0 -1.40625,-0.421875 -1.40625,-2.03125 z m 0,0" id="path3510"/>
          </symbol>
          <symbol style="overflow:visible" overflow="visible" id="textext-6637ec56-5">
            <path style="stroke:none" d="M 4.6875,-2.140625 C 4.6875,-3.40625 3.703125,-4.46875 2.5,-4.46875 c -1.25,0 -2.21875,1.09375 -2.21875,2.328125 0,1.296875 1.03125,2.25 2.203125,2.25 1.203125,0 2.203125,-0.984375 2.203125,-2.25 z m -2.1875,2 c -0.4375,0 -0.875,-0.203125 -1.140625,-0.671875 -0.25,-0.4375 -0.25,-1.046875 -0.25,-1.40625 0,-0.390625 0,-0.921875 0.234375,-1.359375 C 1.609375,-4.03125 2.078125,-4.25 2.484375,-4.25 c 0.4375,0 0.859375,0.21875 1.125,0.65625 0.265625,0.421875 0.265625,1 0.265625,1.375 0,0.359375 0,0.90625 -0.21875,1.34375 C 3.421875,-0.421875 2.984375,-0.140625 2.5,-0.140625 z m 0,0" id="path3513"/>
          </symbol>
          <symbol style="overflow:visible" overflow="visible" id="textext-6637ec56-6">
            <path style="stroke:none" d="m 2.078125,-1.9375 c 0.21875,0.046875 1.03125,0.203125 1.03125,0.921875 0,0.5 -0.34375,0.90625 -1.125,0.90625 -0.84375,0 -1.203125,-0.5625 -1.390625,-1.421875 C 0.5625,-1.65625 0.5625,-1.6875 0.453125,-1.6875 c -0.125,0 -0.125,0.0625 -0.125,0.234375 l 0,1.328125 c 0,0.171875 0,0.234375 0.109375,0.234375 0.046875,0 0.0625,-0.015625 0.25,-0.203125 0.015625,-0.015625 0.015625,-0.03125 0.203125,-0.21875 0.4375,0.40625 0.890625,0.421875 1.09375,0.421875 1.140625,0 1.609375,-0.671875 1.609375,-1.390625 0,-0.515625 -0.296875,-0.828125 -0.421875,-0.9375 C 2.84375,-2.546875 2.453125,-2.625 2.03125,-2.703125 1.46875,-2.8125 0.8125,-2.9375 0.8125,-3.515625 c 0,-0.359375 0.25,-0.765625 1.109375,-0.765625 1.09375,0 1.15625,0.90625 1.171875,1.203125 0,0.09375 0.09375,0.09375 0.109375,0.09375 0.140625,0 0.140625,-0.046875 0.140625,-0.234375 l 0,-1.015625 c 0,-0.15625 0,-0.234375 -0.109375,-0.234375 -0.046875,0 -0.078125,0 -0.203125,0.125 -0.03125,0.03125 -0.125,0.125 -0.171875,0.15625 -0.375,-0.28125 -0.78125,-0.28125 -0.9375,-0.28125 -1.21875,0 -1.59375,0.671875 -1.59375,1.234375 0,0.34375 0.15625,0.625 0.421875,0.84375 0.328125,0.25 0.609375,0.3125 1.328125,0.453125 z m 0,0" id="path3516"/>
          </symbol>
        </g>
      </defs>
      <g id="textext-6637ec56-7">
        <g style="fill:#000000;fill-opacity:1" id="g3519">
          <use height="425" width="428.75" id="use3521" transform="matrix(1, 0, 0, 1, 223.4320068359375, 134.76499938964844)" style="fill: rgb(255, 255, 255);" xlink:href="#textext-6637ec56-1"/>
        </g>
        <g style="fill:#000000;fill-opacity:1" id="g3523">
          <use height="425" width="428.75" id="use3525" transform="matrix(1, 0, 0, 1, 229.86399841308594, 134.76499938964844)" style="fill: rgb(255, 255, 255);" xlink:href="#textext-6637ec56-4"/>
          <use height="425" width="428.75" id="use3527" transform="matrix(1, 0, 0, 1, 234.2913818359375, 134.76499938964844)" style="fill: rgb(255, 255, 255);" xlink:href="#textext-6637ec56-5"/>
          <use height="425" width="428.75" id="use3529" transform="matrix(1, 0, 0, 1, 239.27267456054688, 134.76499938964844)" style="fill: rgb(255, 255, 255);" xlink:href="#textext-6637ec56-6"/>
        </g>
        <g style="fill:#000000;fill-opacity:1" id="g3531">
          <use height="425" width="428.75" id="use3533" transform="matrix(1, 0, 0, 1, 244.86300659179688, 134.76499938964844)" style="fill: rgb(255, 255, 255);" xlink:href="#textext-6637ec56-2"/>
        </g>
      </g>
    </g>
    <g id="g3746" transform="matrix(0,3.7032852,-3.7032852,0,901.43144,-626.12243)">
      <defs id="defs3748">
        <g id="g3750">
          <symbol id="textext-e7aa8506-0" overflow="visible" style="overflow:visible">
            <path id="path3753" d="" style="stroke:none"/>
          </symbol>
          <symbol id="textext-e7aa8506-1" overflow="visible" style="overflow:visible">
            <path id="path3756" d="m 0.875,-0.59375 c -0.03125,0.15625 -0.09375,0.390625 -0.09375,0.4375 0,0.171875 0.140625,0.265625 0.296875,0.265625 0.125,0 0.296875,-0.078125 0.375,-0.28125 C 1.46875,-0.203125 1.796875,-1.5625 1.84375,-1.75 c 0.078125,-0.328125 0.265625,-1.015625 0.3125,-1.296875 0.046875,-0.125 0.328125,-0.59375 0.5625,-0.8125 0.078125,-0.0625 0.375,-0.328125 0.796875,-0.328125 0.265625,0 0.40625,0.125 0.421875,0.125 -0.296875,0.046875 -0.515625,0.28125 -0.515625,0.546875 0,0.15625 0.109375,0.34375 0.375,0.34375 0.265625,0 0.546875,-0.234375 0.546875,-0.59375 0,-0.34375 -0.3125,-0.640625 -0.828125,-0.640625 C 2.875,-4.40625 2.4375,-3.921875 2.25,-3.640625 2.15625,-4.09375 1.796875,-4.40625 1.328125,-4.40625 0.875,-4.40625 0.6875,-4.015625 0.59375,-3.84375 0.421875,-3.5 0.296875,-2.90625 0.296875,-2.875 c 0,0.109375 0.09375,0.109375 0.109375,0.109375 0.109375,0 0.109375,-0.015625 0.171875,-0.234375 0.171875,-0.703125 0.375,-1.1875 0.734375,-1.1875 0.15625,0 0.296875,0.078125 0.296875,0.453125 0,0.21875 -0.03125,0.328125 -0.15625,0.84375 z m 0,0" style="stroke:none"/>
          </symbol>
          <symbol id="textext-e7aa8506-2" overflow="visible" style="overflow:visible">
            <path id="path3759" d="M 1.6875,1.6875 C 1.65625,1.828125 1.640625,1.84375 1.640625,1.890625 c 0,0.21875 0.1875,0.28125 0.296875,0.28125 0.046875,0 0.265625,-0.03125 0.359375,-0.265625 C 2.328125,1.828125 2.375,1.5 2.65625,0.09375 c 0.078125,0 0.15625,0.015625 0.328125,0.015625 1.65625,0 3.1875,-1.5625 3.1875,-3.140625 0,-0.78125 -0.390625,-1.375 -1.140625,-1.375 -1.4375,0 -2.046875,1.9375 -2.640625,3.875 C 1.3125,-0.734375 0.75,-1.28125 0.75,-2 c 0,-0.28125 0.234375,-1.375 0.828125,-2.0625 0.09375,-0.09375 0.09375,-0.109375 0.09375,-0.140625 0,-0.03125 -0.03125,-0.09375 -0.125,-0.09375 -0.28125,0 -1.046875,1.453125 -1.046875,2.40625 0,0.9375 0.65625,1.65625 1.71875,1.90625 z m 1.390625,-2.15625 c -0.09375,0 -0.109375,0 -0.1875,-0.015625 -0.125,0 -0.125,0 -0.125,-0.03125 0,-0.015625 0.171875,-0.9375 0.1875,-1.078125 0.3125,-1.28125 1.09375,-2.234375 1.984375,-2.234375 0.6875,0 0.953125,0.53125 0.953125,1.015625 0,1.125 -1.28125,2.34375 -2.8125,2.34375 z m 0,0" style="stroke:none"/>
          </symbol>
          <symbol id="textext-e7aa8506-3" overflow="visible" style="overflow:visible">
            <path id="path3762" d="" style="stroke:none"/>
          </symbol>
          <symbol id="textext-e7aa8506-4" overflow="visible" style="overflow:visible">
            <path id="path3765" d="m 2.078125,-1.9375 c 0.21875,0.046875 1.03125,0.203125 1.03125,0.921875 0,0.5 -0.34375,0.90625 -1.125,0.90625 -0.84375,0 -1.203125,-0.5625 -1.390625,-1.421875 C 0.5625,-1.65625 0.5625,-1.6875 0.453125,-1.6875 c -0.125,0 -0.125,0.0625 -0.125,0.234375 l 0,1.328125 c 0,0.171875 0,0.234375 0.109375,0.234375 0.046875,0 0.0625,-0.015625 0.25,-0.203125 0.015625,-0.015625 0.015625,-0.03125 0.203125,-0.21875 0.4375,0.40625 0.890625,0.421875 1.09375,0.421875 1.140625,0 1.609375,-0.671875 1.609375,-1.390625 0,-0.515625 -0.296875,-0.828125 -0.421875,-0.9375 C 2.84375,-2.546875 2.453125,-2.625 2.03125,-2.703125 1.46875,-2.8125 0.8125,-2.9375 0.8125,-3.515625 c 0,-0.359375 0.25,-0.765625 1.109375,-0.765625 1.09375,0 1.15625,0.90625 1.171875,1.203125 0,0.09375 0.09375,0.09375 0.109375,0.09375 0.140625,0 0.140625,-0.046875 0.140625,-0.234375 l 0,-1.015625 c 0,-0.15625 0,-0.234375 -0.109375,-0.234375 -0.046875,0 -0.078125,0 -0.203125,0.125 -0.03125,0.03125 -0.125,0.125 -0.171875,0.15625 -0.375,-0.28125 -0.78125,-0.28125 -0.9375,-0.28125 -1.21875,0 -1.59375,0.671875 -1.59375,1.234375 0,0.34375 0.15625,0.625 0.421875,0.84375 0.328125,0.25 0.609375,0.3125 1.328125,0.453125 z m 0,0" style="stroke:none"/>
          </symbol>
          <symbol id="textext-e7aa8506-5" overflow="visible" style="overflow:visible">
            <path id="path3768" d="M 1.765625,-4.40625 0.375,-4.296875 l 0,0.3125 c 0.640625,0 0.734375,0.0625 0.734375,0.546875 l 0,2.6875 c 0,0.4375 -0.109375,0.4375 -0.78125,0.4375 l 0,0.3125 C 0.640625,-0.015625 1.1875,-0.03125 1.421875,-0.03125 1.78125,-0.03125 2.125,-0.015625 2.46875,0 l 0,-0.3125 c -0.671875,0 -0.703125,-0.046875 -0.703125,-0.4375 z m 0.03125,-1.734375 c 0,-0.3125 -0.234375,-0.53125 -0.515625,-0.53125 -0.3125,0 -0.53125,0.265625 -0.53125,0.53125 0,0.265625 0.21875,0.53125 0.53125,0.53125 0.28125,0 0.515625,-0.21875 0.515625,-0.53125 z m 0,0" style="stroke:none"/>
          </symbol>
          <symbol id="textext-e7aa8506-6" overflow="visible" style="overflow:visible">
            <path id="path3771" d="m 1.09375,-3.421875 0,2.671875 c 0,0.4375 -0.109375,0.4375 -0.78125,0.4375 l 0,0.3125 c 0.359375,-0.015625 0.859375,-0.03125 1.140625,-0.03125 0.25,0 0.765625,0.015625 1.109375,0.03125 l 0,-0.3125 c -0.671875,0 -0.78125,0 -0.78125,-0.4375 l 0,-1.84375 C 1.78125,-3.625 2.5,-4.1875 3.125,-4.1875 c 0.640625,0 0.75,0.53125 0.75,1.109375 l 0,2.328125 c 0,0.4375 -0.109375,0.4375 -0.78125,0.4375 l 0,0.3125 c 0.34375,-0.015625 0.859375,-0.03125 1.125,-0.03125 0.25,0 0.78125,0.015625 1.109375,0.03125 l 0,-0.3125 c -0.515625,0 -0.765625,0 -0.765625,-0.296875 l 0,-1.90625 c 0,-0.859375 0,-1.15625 -0.3125,-1.515625 -0.140625,-0.171875 -0.46875,-0.375 -1.046875,-0.375 C 2.46875,-4.40625 2,-3.984375 1.71875,-3.359375 l 0,-1.046875 -1.40625,0.109375 0,0.3125 c 0.703125,0 0.78125,0.0625 0.78125,0.5625 z m 0,0" style="stroke:none"/>
          </symbol>
        </g>
      </defs>
      <g id="textext-e7aa8506-7">
        <g id="g3774" style="fill:#000000;fill-opacity:1">
          <use id="use3776" width="428.75" height="425" transform="matrix(1, 0, 0, 1, 223.4320068359375, 134.76499938964844)" style="fill: rgb(255, 255, 255);" xlink:href="#textext-e7aa8506-1"/>
        </g>
        <g id="g3778" style="fill:#000000;fill-opacity:1">
          <use id="use3780" width="428.75" height="425" transform="matrix(1, 0, 0, 1, 229.86399841308594, 134.76499938964844)" style="fill: rgb(255, 255, 255);" xlink:href="#textext-e7aa8506-4"/>
          <use id="use3782" width="428.75" height="425" transform="matrix(1, 0, 0, 1, 233.79324340820312, 134.76499938964844)" style="fill: rgb(255, 255, 255);" xlink:href="#textext-e7aa8506-5"/>
          <use id="use3784" width="428.75" height="425" transform="matrix(1, 0, 0, 1, 236.5608673095703, 134.76499938964844)" style="fill: rgb(255, 255, 255);" xlink:href="#textext-e7aa8506-6"/>
        </g>
        <g id="g3786" style="fill:#000000;fill-opacity:1">
          <use id="use3788" width="428.75" height="425" transform="matrix(1, 0, 0, 1, 243.75599670410156, 134.76499938964844)" style="fill: rgb(255, 255, 255);" xlink:href="#textext-e7aa8506-2"/>
        </g>
      </g>
    </g>
  </g>
</svg>