<svg id="visual" viewBox="0 0 900 600" width="900" height="600" xmlns="http://www.w3.org/2000/svg" xmlns:xlink="http://www.w3.org/1999/xlink" version="1.1"><path d="M0 77L64 44L129 81L193 95L257 63L321 99L386 73L450 104L514 39L579 88L643 69L707 97L771 70L836 113L900 109L900 0L836 0L771 0L707 0L643 0L579 0L514 0L450 0L386 0L321 0L257 0L193 0L129 0L64 0L0 0Z" fill="#302221"></path><path d="M0 59L64 71L129 18L193 88L257 37L321 48L386 32L450 87L514 62L579 24L643 36L707 68L771 33L836 58L900 22L900 0L836 0L771 0L707 0L643 0L579 0L514 0L450 0L386 0L321 0L257 0L193 0L129 0L64 0L0 0Z" fill="#882925"></path><path d="M0 36L64 15L129 23L193 50L257 16L321 1L386 39L450 0L514 48L579 31L643 43L707 48L771 36L836 19L900 45L900 0L836 0L771 0L707 0L643 0L579 0L514 0L450 0L386 0L321 0L257 0L193 0L129 0L64 0L0 0Z" fill="#c00000"></path></svg>