<svg id="visual" viewBox="0 0 900 600" width="900" height="600" xmlns="http://www.w3.org/2000/svg" xmlns:xlink="http://www.w3.org/1999/xlink" version="1.1"><path d="M0 115L64 67L129 122L193 143L257 95L321 149L386 110L450 156L514 58L579 132L643 105L707 147L771 106L836 170L900 164L900 0L836 0L771 0L707 0L643 0L579 0L514 0L450 0L386 0L321 0L257 0L193 0L129 0L64 0L0 0Z" fill="#302221"></path><path d="M0 89L64 107L129 28L193 133L257 56L321 73L386 49L450 131L514 94L579 37L643 55L707 103L771 51L836 87L900 34L900 0L836 0L771 0L707 0L643 0L579 0L514 0L450 0L386 0L321 0L257 0L193 0L129 0L64 0L0 0Z" fill="#882925"></path><path d="M0 54L64 22L129 35L193 75L257 24L321 2L386 60L450 0L514 73L579 47L643 65L707 73L771 55L836 29L900 68L900 0L836 0L771 0L707 0L643 0L579 0L514 0L450 0L386 0L321 0L257 0L193 0L129 0L64 0L0 0Z" fill="#c00000"></path></svg>